<?xml version="1.0" encoding="utf-8"?>
<!-- Generator: Adobe Illustrator 26.5.0, SVG Export Plug-In . SVG Version: 6.00 Build 0)  -->
<svg version="1.1" id="Layer_1" xmlns="http://www.w3.org/2000/svg" xmlns:xlink="http://www.w3.org/1999/xlink" x="0px" y="0px"
	 viewBox="0 0 300 300" style="enable-background:new 0 0 300 300;" xml:space="preserve">
<style type="text/css">
	.st0{fill:#FFFFFF;}
</style>
<g>
	<path class="st0" d="M149.57,290.98c-23.3-0.74-45.25-6.11-65.75-17.1c-1.83-0.98-3.34-0.98-5.2-0.3
		c-14.55,5.3-29.16,10.47-43.7,15.8c-3.9,1.43-7.47,1.47-10.68-1.34c-3.31-2.91-3.68-6.58-2.63-10.7
		c3.88-15.2,7.63-30.44,11.49-45.64c0.46-1.83,0.27-3.25-0.8-4.89C-5.4,168.79,3.8,93.25,54.78,46.47
		C84.59,19.11,120.15,6.75,160.56,9.79C224,14.56,275.89,61.06,287.92,123.33c14.82,76.76-36.23,151.07-113.39,164.8
		C166.3,289.6,157.89,290.06,149.57,290.98z M43.8,266.06c1.21-0.35,2.03-0.54,2.81-0.82c9.99-3.59,20.05-7.02,29.94-10.87
		c4.61-1.79,8.46-1.35,12.73,1.08c26.68,15.24,55.26,19.88,85.27,13.66c66.77-13.83,108.98-79.51,94.14-145.95
		c-11.91-53.34-58.36-92.57-112.93-94.99c-30.62-1.36-58.51,7.11-82.06,26.81c-37.77,31.59-51.91,72.16-42.83,120.59
		c3.08,16.42,10.04,31.32,19.77,44.89c2.34,3.26,3.14,6.59,1.97,10.45c-0.79,2.61-1.36,5.28-2.02,7.93
		C48.36,247.79,46.13,256.73,43.8,266.06z"/>
	<path class="st0" d="M102.99,149.96c-0.05,10.33-8.56,18.7-18.92,18.62c-10.32-0.08-18.65-8.62-18.54-19
		c0.11-10.19,8.54-18.49,18.77-18.47C94.65,131.13,103.04,139.59,102.99,149.96z"/>
	<path class="st0" d="M149.82,168.58c-10.33-0.01-18.74-8.49-18.7-18.84c0.04-10.33,8.54-18.71,18.91-18.63
		c10.22,0.08,18.53,8.46,18.55,18.69C168.59,160.15,160.16,168.59,149.82,168.58z"/>
	<path class="st0" d="M234.16,149.93c-0.04,10.34-8.53,18.72-18.89,18.65c-10.32-0.07-18.67-8.59-18.57-18.97
		c0.1-10.2,8.51-18.51,18.74-18.5C225.8,131.11,234.2,139.56,234.16,149.93z"/>
</g>
</svg>
