<?xml version="1.0" encoding="utf-8"?>
<!-- Generator: Adobe Illustrator 26.5.0, SVG Export Plug-In . SVG Version: 6.00 Build 0)  -->
<svg version="1.1" id="Layer_1" xmlns="http://www.w3.org/2000/svg" xmlns:xlink="http://www.w3.org/1999/xlink" x="0px" y="0px"
	 viewBox="0 0 300 300" style="enable-background:new 0 0 300 300;" xml:space="preserve">
<style type="text/css">
	.st0{fill:#FFFFFF;}
</style>
<g>
	<path class="st0" d="M203.15,243.79c0,5.09,0.08,10.06-0.02,15.02c-0.14,6.73-5.57,11.14-11.67,9.62c-4.03-1.01-6.88-4.41-7-8.67
		c-0.12-4.29-0.04-8.59-0.06-12.89c0-0.95-0.08-1.9-0.14-3.12c-1.35,0-2.49,0-3.64,0c-26.75,0-53.51,0.04-80.26-0.01
		c-22.49-0.04-41.16-14.88-46.08-36.75c-0.83-3.67-1.07-7.54-1.09-11.32c-0.12-16.21-0.1-32.42,0.01-48.63
		c0.02-2.31-0.75-3.47-2.71-4.52c-7.82-4.19-15.57-8.53-23.33-12.83c-7.2-4-11.52-9.89-11.48-18.35
		c0.04-8.35,4.41-14.15,11.48-18.06c34.3-18.98,68.59-38.01,102.96-56.86c12.91-7.08,26.28-7.3,39.21-0.24
		c34.75,18.98,69.39,38.16,103.98,57.44c14.79,8.25,14.84,27.08,0.22,35.65c-7.99,4.68-16.16,9.07-24.32,13.46
		c-1.79,0.96-2.44,2.03-2.43,4.07c0.08,16.8,0.18,33.6,0,50.39c-0.25,22.73-15.64,41.16-37.91,45.72
		C207.06,243.25,205.23,243.46,203.15,243.79z M197.52,149.88c22.23-12.28,44.17-24.4,66.1-36.54c2.74-1.52,2.62-2.28-0.54-4.03
		c-33.97-18.79-67.94-37.57-101.92-56.34c-7.53-4.16-15.03-4.05-22.57,0.13c-27.55,15.28-55.14,30.49-82.71,45.73
		c-6.57,3.63-13.17,7.22-19.72,10.88c-2.28,1.27-2.26,2.12-0.08,3.45c1.25,0.76,2.55,1.43,3.83,2.14
		c32.95,18.21,65.9,36.43,98.85,54.63c7.42,4.1,14.87,4.15,22.33,0.08c2.74-1.5,5.47-3.01,8.2-4.52c3.64-2.01,7.28-4.03,11.71-6.49
		c-1.35-0.98-2.32-1.51-3.07-2.26c-11.27-11.24-22.5-22.52-33.79-33.75c-2.68-2.67-4.12-5.69-3.26-9.48c0.77-3.4,2.9-5.78,6.21-6.81
		c3.77-1.18,7.11-0.19,9.92,2.61c9.11,9.12,18.23,18.23,27.34,27.35C188.68,141.01,193.01,145.36,197.52,149.88z M71.89,154.41
		c0,1.45,0,2.32,0,3.19c0,12.7-0.04,25.39,0.01,38.09c0.07,17.45,12.04,29.3,29.57,29.31c26.56,0.02,53.12,0,79.67,0
		c1.02,0,2.05,0,3.04,0c0-15.61,0-30.76,0-46.27c-5.01,2.75-9.65,5.4-14.39,7.88c-13.36,7.01-26.75,6.95-40.02-0.22
		c-10.12-5.47-20.16-11.11-30.23-16.67C90.51,164.71,81.49,159.72,71.89,154.41z M203.16,224.78c1.65-0.31,2.81-0.45,3.93-0.75
		c12.4-3.33,20.71-13.76,20.91-26.78c0.21-13.66,0.06-27.33,0.06-40.99c0-0.44-0.11-0.89-0.22-1.69
		c-7.58,4.19-14.85,8.32-22.23,12.23c-1.95,1.03-2.5,2.24-2.49,4.34c0.08,16.79,0.05,33.58,0.05,50.37
		C203.16,222.45,203.16,223.41,203.16,224.78z"/>
</g>
</svg>
