<?xml version="1.0" encoding="utf-8"?>
<!-- Generator: Adobe Illustrator 26.5.0, SVG Export Plug-In . SVG Version: 6.00 Build 0)  -->
<svg version="1.1" id="Layer_1" xmlns="http://www.w3.org/2000/svg" xmlns:xlink="http://www.w3.org/1999/xlink" x="0px" y="0px"
	 viewBox="0 0 300 300" style="enable-background:new 0 0 300 300;" xml:space="preserve">
<style type="text/css">
	.st0{fill:#FFFFFF;}
</style>
<g>
	<path class="st0" d="M145.62,100.79c0-13.16-0.02-26.31,0.01-39.47c0.03-15.02,10.05-25.11,25.12-25.15
		c22.52-0.06,45.04-0.05,67.55,0c15.08,0.03,25.19,9.99,25.25,25.06c0.1,26.61,0.1,53.21,0,79.82
		c-0.06,15.03-10.25,25.01-25.3,25.03c-22.42,0.03-44.84,0.03-67.26,0c-15.36-0.02-25.34-10.1-25.36-25.53
		C145.61,127.3,145.62,114.04,145.62,100.79z M251.59,101.11c0-13.26,0.01-26.52,0-39.77c-0.01-8.43-4.8-13.21-13.23-13.22
		c-22.52-0.01-45.05-0.01-67.57,0c-8.4,0-13.3,4.82-13.3,13.21c-0.03,26.52-0.03,53.03,0,79.55c0.01,8.4,4.89,13.21,13.3,13.21
		c22.52,0.01,45.05,0.01,67.57,0c8.44,0,13.23-4.78,13.24-13.2C251.6,127.62,251.59,114.37,251.59,101.11z"/>
	<path class="st0" d="M129.9,198.77c0,13.26,0.02,26.51-0.01,39.77c-0.03,15.04-10.04,25.1-25.11,25.16
		c-14.62,0.06-29.25,0.07-43.87,0c-14.73-0.08-24.88-10.02-24.95-24.76c-0.14-26.8-0.15-53.61,0-80.41
		c0.08-14.72,10.31-24.69,24.99-24.74c14.62-0.05,29.25-0.05,43.87,0c15,0.05,25.04,10.16,25.08,25.22
		C129.92,172.26,129.9,185.51,129.9,198.77z M47.9,198.87c0,13.25-0.01,26.5,0,39.74c0.01,8.25,4.83,13.12,13.01,13.13
		c14.71,0.02,29.43,0.02,44.14,0c7.97-0.01,12.98-4.94,12.99-12.93c0.04-26.69,0.04-53.38,0-80.07
		c-0.01-8.04-4.96-12.95-12.94-12.96c-14.71-0.02-29.43-0.02-44.14,0c-8.24,0.01-13.05,4.81-13.06,13.06
		C47.89,172.18,47.9,185.53,47.9,198.87z"/>
	<path class="st0" d="M204.45,263.71c-11.11,0-22.23,0.03-33.34,0c-15.45-0.04-25.45-10.03-25.48-25.4
		c-0.02-10.63-0.04-21.25,0.01-31.88c0.06-14.19,9.93-24.57,24.11-24.71c23.2-0.23,46.41-0.21,69.61-0.01
		c13.63,0.12,23.52,9.59,24.05,23.21c0.46,11.78,0.45,23.6,0.02,35.37c-0.5,13.9-10.53,23.25-24.47,23.39
		C227.46,263.8,215.95,263.71,204.45,263.71z M204.59,193.71c-11.3,0-22.6-0.01-33.91,0c-8.28,0.01-13.16,4.77-13.2,12.97
		c-0.05,10.72-0.06,21.43,0,32.15c0.04,8.01,5.01,12.91,13,12.91c22.7,0.01,45.4,0.01,68.11,0c8.05,0,12.97-4.87,12.99-12.86
		c0.03-10.81,0.03-21.63,0-32.44c-0.02-7.85-4.91-12.71-12.79-12.73C227.39,193.69,215.99,193.71,204.59,193.71z"/>
	<path class="st0" d="M83.09,36.15c7.11,0,14.22-0.02,21.34,0c15.46,0.05,25.43,9.99,25.46,25.37c0.02,10.52,0.03,21.04,0,31.56
		c-0.05,14.82-10.07,25-24.9,25.11c-14.71,0.11-29.42,0.1-44.13,0c-14.54-0.1-24.65-10.03-24.9-24.54c-0.19-11-0.19-22.01,0-33.02
		c0.25-14.57,10.32-24.35,24.93-24.47C68.28,36.1,75.69,36.15,83.09,36.15z M83.05,106.16c7.5,0,15.01,0.03,22.51-0.01
		c7.28-0.04,12.38-4.92,12.46-12.24c0.13-11.2,0.14-22.41-0.01-33.61c-0.09-7.28-5.24-12.16-12.54-12.18
		c-15.01-0.03-30.01-0.03-45.02,0c-7.5,0.01-12.52,4.97-12.55,12.4c-0.05,11.11-0.05,22.21,0,33.32c0.03,7.29,5.03,12.25,12.33,12.3
		C67.85,106.19,75.45,106.15,83.05,106.16z"/>
</g>
</svg>
