<?xml version="1.0" encoding="utf-8"?>
<!-- Generator: Adobe Illustrator 26.5.0, SVG Export Plug-In . SVG Version: 6.00 Build 0)  -->
<svg version="1.1" id="Layer_1" xmlns="http://www.w3.org/2000/svg" xmlns:xlink="http://www.w3.org/1999/xlink" x="0px" y="0px"
	 viewBox="0 0 300 300" style="enable-background:new 0 0 300 300;" xml:space="preserve">
<style type="text/css">
	.st0{fill:#FFFFFF;}
</style>
<g>
	<path class="st0" d="M300,212.43c-0.39,1.28-0.77,2.56-1.16,3.85c-3.06,10.21-12.23,17.65-22.81,18.46
		c-1.84,0.14-3.69,0.21-5.53,0.21c-31.57,0.01-63.15,0.03-94.72-0.04c-2.25,0-3.73,0.59-5.08,2.48c-4,5.62-8.19,11.11-12.36,16.61
		c-4.4,5.79-10.74,5.8-15.12,0.02c-4.23-5.58-8.46-11.15-12.55-16.83c-1.22-1.7-2.54-2.27-4.59-2.27
		c-32.06,0.06-64.12-0.01-96.18,0.07c-11.02,0.03-19.82-4.03-25.05-13.91c-1.92-3.64-3.16-8.12-3.17-12.22
		c-0.22-47.19-0.19-94.38-0.11-141.57c0.02-14.2,10.86-25.32,25-26.1c1.16-0.06,2.33-0.07,3.5-0.07c80.44,0,160.88,0,241.32,0
		c15.36,0,24.38,7.03,28.28,21.99c0.04,0.17,0.23,0.3,0.35,0.45C300,113.17,300,162.8,300,212.43z M150.77,234.89
		c2.99-4,5.9-7.42,8.29-11.18c3.04-4.79,7.06-6.41,12.7-6.37c33.42,0.2,66.83,0.11,100.25,0.09c7.23,0,10.49-3.33,10.49-10.54
		c0-45.92,0-91.85-0.01-137.77c0-1.26,0.01-2.55-0.28-3.76c-1.1-4.56-4.44-6.73-10.19-6.73c-80.82,0-161.64,0-242.46,0
		c-0.58,0-1.17-0.02-1.75,0.01c-5.2,0.23-8.78,3.75-8.78,8.95c-0.03,46.9-0.05,93.79,0.08,140.69c0.01,2.12,1.14,4.52,2.42,6.3
		c2,2.78,5.29,2.88,8.47,2.88c33.81-0.02,67.61,0.03,101.42-0.06c4.41-0.01,7.59,1.48,10.09,5.11
		C144.36,226.63,147.52,230.56,150.77,234.89z"/>
	<path class="st0" d="M249.01,161.21c1.48,1.32,3.05,2.5,4.36,3.91c3.38,3.64,3.33,9.03,0,12.36c-3.34,3.34-8.7,3.39-12.33-0.04
		c-1.4-1.32-2.51-2.96-3.64-4.31c-21.83,13.54-45.62,6.26-57.52-10.02c-12.28-16.8-10.51-39.84,4.29-54.62
		c14.62-14.61,37.67-16.33,54.33-4.11C254.41,116.04,261.96,139.27,249.01,161.21z M235.89,148.23c5.08-11.03,1.07-23.99-8.82-30.49
		c-10.04-6.6-23.47-4.83-31.52,4.16c-8.09,9.03-8.43,22.44-0.81,31.83c7.04,8.69,20.25,11.75,29.34,6.34
		c-1.53-1.38-3.05-2.56-4.34-3.96c-3.41-3.7-3.32-8.98,0.09-12.34c3.36-3.31,8.46-3.41,12.1-0.1
		C233.28,144.9,234.35,146.43,235.89,148.23z"/>
	<path class="st0" d="M163.23,171.02c-0.04,4.67-2.8,8.13-6.73,9.08c-3.92,0.95-8.13-1.06-9.85-4.94c-1.33-3.01-2.42-6.14-3.53-9.25
		c-0.47-1.33-1.09-1.99-2.67-1.97c-8.06,0.09-16.12,0.08-24.18,0c-1.54-0.02-2.23,0.55-2.7,1.93c-0.98,2.84-2.04,5.67-3.17,8.45
		c-1.99,4.9-6.71,7.14-11.3,5.44c-4.73-1.75-6.91-6.62-4.98-11.72c8.16-21.61,16.37-43.21,24.61-64.79c1.72-4.5,5.38-7.09,9.76-6.96
		c4.65,0.14,7.92,2.46,9.56,6.81c8.21,21.7,16.39,43.41,24.54,65.13C163,169.29,163.11,170.47,163.23,171.02z M121.07,146.3
		c4.97,0,9.64,0,14.62,0c-2.42-6.4-4.75-12.56-7.3-19.31C125.8,133.82,123.48,139.96,121.07,146.3z"/>
	<path class="st0" d="M63.21,114.28c0,5.06,0,9.7,0,14.8c4.03,0,7.97-0.03,11.91,0.01c1.84,0.02,3.71-0.03,5.5,0.31
		c4.36,0.83,7.4,4.83,7.07,9.02c-0.35,4.51-3.82,8-8.4,8.12c-5.22,0.14-10.45,0.03-15.99,0.03c-0.08,1.26-0.2,2.28-0.2,3.3
		c-0.02,7.1,0.06,14.2-0.05,21.29c-0.07,4.51-2.4,7.53-6.36,8.74c-3.39,1.04-7.43-0.04-9.22-3.16c-1.14-1.98-1.78-4.54-1.79-6.85
		c-0.13-20.9-0.08-41.81-0.08-62.71c0-0.68-0.01-1.36,0.04-2.04c0.34-4.91,3.8-8.32,8.72-8.35c8.83-0.07,17.67-0.06,26.5,0
		c5.07,0.03,8.77,3.66,8.87,8.5c0.1,4.95-3.56,8.83-8.77,8.95C75.16,114.39,69.35,114.28,63.21,114.28z"/>
</g>
</svg>
