<?xml version="1.0" encoding="utf-8"?>
<!-- Generator: Adobe Illustrator 26.5.0, SVG Export Plug-In . SVG Version: 6.00 Build 0)  -->
<svg version="1.1" id="Layer_1" xmlns="http://www.w3.org/2000/svg" xmlns:xlink="http://www.w3.org/1999/xlink" x="0px" y="0px"
	 viewBox="0 0 300 300" style="enable-background:new 0 0 300 300;" xml:space="preserve">
<style type="text/css">
	.st0{fill:#FFFFFF;}
</style>
<g>
	<path class="st0" d="M151.76,0c2.39,1.66,3.05,3.93,2.98,6.79c-0.17,7.01-0.05,14.03-0.05,21.37
		c31.67,1.76,59.01,13.38,81.38,35.76c22.33,22.34,33.94,49.59,35.75,81.39c7.2,0,14.3,0.11,21.4-0.05c2.86-0.07,5.13,0.6,6.79,2.98
		c0,1.17,0,2.34,0,3.52c-1.66,2.37-3.92,3.05-6.79,2.98c-7.01-0.17-14.03-0.06-21.37-0.06c-1.8,31.65-13.39,59.01-35.77,81.38
		c-22.33,22.32-49.58,33.95-81.38,35.75c0,7.2-0.11,14.3,0.06,21.39c0.07,2.87-0.61,5.13-2.98,6.79c-1.17,0-2.34,0-3.52,0
		c-2.38-1.66-3.05-3.92-2.98-6.79c0.17-7.01,0.05-14.03,0.05-21.37c-31.65-1.81-59.01-13.39-81.38-35.77
		c-22.32-22.33-33.96-49.58-35.75-81.38c-7.2,0-14.3-0.11-21.39,0.05c-2.86,0.07-5.14-0.6-6.79-2.98c0-1.17,0-2.34,0-3.52
		c1.65-2.4,3.93-3.05,6.79-2.98c7.01,0.17,14.03,0.05,21.37,0.05c1.79-31.66,13.39-59.01,35.77-81.39
		c22.34-22.33,49.6-33.91,81.38-35.76c0-7.19,0.11-14.29-0.05-21.38c-0.07-2.86,0.59-5.14,2.98-6.79C149.41,0,150.59,0,151.76,0z
		 M154.69,262.29c59.58-2.46,105.63-51.04,107.54-107.6c-0.95,0-1.9,0-2.85,0c-6.44,0-12.89,0.02-19.33-0.01
		c-3.51-0.02-5.58-1.74-5.64-4.58c-0.06-2.93,2.09-4.76,5.74-4.77c5.96-0.03,11.91-0.01,17.87-0.01c1.42,0,2.85,0,4.28,0
		c-2.89-64.71-57.58-107.22-107.6-107.3c0,6.63,0.03,13.25-0.01,19.88c-0.02,3.24-1.84,5.3-4.57,5.36
		c-2.84,0.07-4.73-2.06-4.78-5.44c-0.04-2.83-0.01-5.66-0.01-8.49c0-3.87,0-7.73,0-11.61C80.9,40.54,38.08,95.04,38.02,145.31
		c7.31,0,14.62-0.02,21.93,0.01c3.49,0.01,5.58,1.75,5.65,4.58c0.07,2.92-2.11,4.76-5.74,4.78c-4.2,0.03-8.4,0.01-12.6,0.01
		c-3.18,0-6.37,0-9.55,0c2.49,59.81,51.28,105.64,107.6,107.54c0-1.06,0-2.1,0-3.15c0-6.54,0-13.08,0-19.63
		c0-2.15,0.8-4.06,2.91-4.56c1.43-0.34,3.55-0.2,4.53,0.66c1.12,0.98,1.8,3,1.84,4.58C154.79,247.44,154.69,254.75,154.69,262.29z"
		/>
	<path class="st0" d="M133.63,163.3c-16.12-10.78-38.66-0.54-41.07,18.36c-0.18,1.45-0.25,2.92-0.44,4.37
		c-0.36,2.77-2.38,4.55-4.91,4.37c-2.51-0.18-4.61-2.21-4.28-4.98c0.5-4.23,1.08-8.55,2.45-12.55c2.9-8.44,7.69-13.37,18.3-20.04
		c-5.4-5.73-7.79-12.47-6.35-20.28c0.99-5.38,3.74-9.8,8.03-13.22c8.52-6.79,21.06-6.21,28.97,1.31c9,8.57,9.15,20.19,0.28,32.25
		c1.64,1.02,3.25,2.09,4.93,3.01c0.48,0.26,1.34,0.31,1.78,0.05c4.08-2.43,8.11-4.95,12.26-7.51c-7.78-6.59-11.86-15.07-11.19-25.53
		c0.5-7.84,3.76-14.45,9.54-19.79c11.9-10.98,30.47-10.25,41.67,1.49c10.19,10.69,12.39,30.52-3.4,44.07c0.71,0.4,1.34,0.79,2,1.11
		c18.53,8.98,28.36,23.76,29.53,44.3c0.19,3.43-1.58,5.61-4.44,5.72c-2.83,0.11-4.68-1.82-4.86-5.36
		c-0.82-16.08-8.16-28.19-22.49-35.49c-26.15-13.33-56.78,4.91-58.55,34.61c-0.03,0.49-0.02,0.98-0.06,1.46
		c-0.23,2.89-1.95,4.72-4.51,4.79c-2.67,0.07-4.96-1.89-4.75-4.82c0.32-4.45,0.87-8.94,1.91-13.27
		C125.63,174.89,129.12,168.9,133.63,163.3z M192.28,125.14c0.07-11.43-8.91-20.47-20.32-20.47c-11.12,0-20.17,8.93-20.25,19.97
		c-0.08,11.41,8.9,20.59,20.2,20.66C183.08,145.38,192.21,136.34,192.28,125.14z M119.02,149.53c7.17-0.01,12.83-5.63,12.82-12.74
		c-0.01-7.11-5.7-12.74-12.85-12.7c-7.11,0.05-12.77,5.78-12.71,12.88C106.34,143.9,112.05,149.53,119.02,149.53z"/>
</g>
</svg>
