<?xml version="1.0" encoding="utf-8"?>
<!-- Generator: Adobe Illustrator 26.5.0, SVG Export Plug-In . SVG Version: 6.00 Build 0)  -->
<svg version="1.1" id="Layer_1" xmlns="http://www.w3.org/2000/svg" xmlns:xlink="http://www.w3.org/1999/xlink" x="0px" y="0px"
	 viewBox="0 0 300 300" style="enable-background:new 0 0 300 300;" xml:space="preserve">
<style type="text/css">
	.st0{fill:#FFFFFF;}
</style>
<g>
	<path class="st0" d="M106.11,149.8c0-10.54-0.03-21.09,0.01-31.63c0.05-14.15,12.36-21.7,24.94-15.27
		c20.74,10.62,41.43,21.33,62.17,31.94c6.19,3.17,9.87,8.02,9.91,15.01c0.04,7.12-3.66,12.04-9.97,15.26
		c-20.74,10.6-41.6,21.01-62.09,32.09c-10.71,5.8-25.34-0.79-25.01-15.48C106.3,171.08,106.11,160.44,106.11,149.8z M125,179.12
		c19.04-9.82,37.56-19.37,56.55-29.17c-19.2-9.88-37.74-19.42-56.55-29.11C125,140.53,125,159.52,125,179.12z"/>
	<path class="st0" d="M62.41,54.32c5.2,0.26,8.11,1.96,9.75,5.47c1.75,3.75,1.09,7.25-1.58,10.34c-3,3.47-6.26,6.73-9.08,10.34
		c-34.81,44.63-31.56,107.01,7.69,147.81c2.48,2.58,4.35,5.33,3.81,9.06c-0.55,3.8-2.65,6.47-6.35,7.68
		c-3.68,1.21-6.95,0.34-9.67-2.38c-9.51-9.54-17.78-20.1-23.55-32.27c-23.89-50.42-19.24-98.13,14.37-142.8
		c2.75-3.65,5.91-7.05,9.24-10.18C58.76,55.75,61.26,54.94,62.41,54.32z"/>
	<path class="st0" d="M281.24,154.62c-0.51,31.03-12.84,61.85-37.77,87.51c-4.14,4.26-9.9,4.54-13.8,0.73
		c-3.92-3.83-3.82-9.46,0.43-13.82c15.75-16.17,26.25-35.19,30.23-57.42c6.75-37.63-2.79-70.75-28.65-99.05
		c-0.59-0.65-1.23-1.26-1.83-1.9c-3.96-4.29-4.01-9.88-0.14-13.62c3.84-3.72,9.54-3.51,13.59,0.58
		c12.1,12.21,21.5,26.24,28.04,42.14C277.98,115.91,281.25,132.71,281.24,154.62z"/>
	<path class="st0" d="M56.76,147.78c0.36-22.97,9.02-44.8,26.6-62.98c4.14-4.28,9.87-4.6,13.79-0.85c3.96,3.79,3.92,9.44-0.28,13.82
		c-14.35,14.94-21.58,32.75-21.26,53.44c0.29,19.25,7.17,35.95,20.4,49.96c2.44,2.58,4.43,5.26,3.96,9.01
		c-0.48,3.8-2.51,6.53-6.17,7.82c-3.77,1.32-7.13,0.45-9.93-2.37c-8.7-8.75-15.44-18.82-20.13-30.25
		C59.08,174.06,56.85,162.26,56.76,147.78z"/>
	<path class="st0" d="M243.24,149.09c-0.48,25.87-8.94,47.4-26.06,65.44c-4.58,4.82-10.33,5.38-14.41,1.41
		c-4.07-3.96-3.77-9.49,0.76-14.27c26.75-28.17,27.98-70.75,2.88-100.26c-1.26-1.49-2.68-2.84-3.96-4.32
		c-3.53-4.09-3.34-9.64,0.4-13.18c3.73-3.53,9.39-3.49,13.17,0.33c15.22,15.4,24.1,33.88,26.53,55.41
		C242.95,143.14,243.07,146.65,243.24,149.09z"/>
</g>
</svg>
