<?xml version="1.0" encoding="utf-8"?>
<!-- Generator: Adobe Illustrator 26.5.0, SVG Export Plug-In . SVG Version: 6.00 Build 0)  -->
<svg version="1.1" id="Layer_1" xmlns="http://www.w3.org/2000/svg" xmlns:xlink="http://www.w3.org/1999/xlink" x="0px" y="0px"
	 viewBox="0 0 300 300" style="enable-background:new 0 0 300 300;" xml:space="preserve">
<style type="text/css">
	.st0{fill:#FFFFFF;}
</style>
<g>
	<path class="st0" d="M198.35,51.59c1.59,8.31,3.13,16.34,4.68,24.37c0.9,4.69,1.87,9.37,2.7,14.08c0.29,1.65,0.87,2.43,2.69,2.74
		c9.13,1.56,18.23,3.33,27.34,5.02c0.77,0.14,1.54,0.27,2.29,0.47c3.32,0.85,5.07,3.35,4.53,6.44c-0.55,3.15-2.94,4.8-6.55,4.18
		c-6.73-1.16-13.43-2.49-20.14-3.74c-2.27-0.42-4.55-0.81-7.22-1.28c1.6,8.57,3.09,16.79,4.72,24.98c0.14,0.68,1.18,1.46,1.95,1.67
		c2.91,0.8,5.9,1.32,8.83,2.06c3.25,0.83,4.82,3.07,4.34,5.93c-0.51,3-2.89,4.79-6.18,4.45c-1.92-0.2-3.81-0.66-6.16-1.08
		c1.08,5.85,2.06,11.47,3.27,17.05c0.1,0.48,1.77,0.86,2.71,0.87c16,0.21,30.8,4.55,44.4,12.94c13.36,8.23,18.64,22.06,14.21,37.11
		c-7.18,24.39-19.42,45.91-36.66,64.57c-13.02,14.09-34.29,14.15-47.25,0c-17.36-18.96-29.54-40.88-36.76-65.54
		c-4.14-14.13,0.15-26.53,14.6-36.18c9.33-6.23,19.91-9.79,30.99-11.72c0.95-0.17,1.88-0.42,3-0.68c-1.62-8.35-3.2-16.56-4.81-24.77
		c-6.59-33.49-13.19-66.98-19.8-100.47c-1.35-6.82-6.52-10.48-13.23-9.18c-33.89,6.6-67.77,13.25-101.66,19.9
		c-0.37,0.07-0.71,0.27-1.35,0.52c1.08,5.65,2.15,11.27,3.23,16.9c0.78,4.02,1.59,8.04,2.35,12.06
		c2.38,12.52-5.06,23.59-17.56,26.09c-8.99,1.8-17.99,3.53-26.99,5.3c-0.57,0.11-1.12,0.29-2.09,0.55
		c0.89,4.69,1.75,9.34,2.66,13.98c9.31,47.07,18.63,94.14,27.93,141.21c1.51,7.66,6.59,11.14,14.19,9.67
		c29.3-5.67,58.61-11.33,87.92-16.99c4.15-0.8,6.99,0.65,7.59,3.88c0.62,3.33-1.26,5.74-5.12,6.49
		c-13.88,2.71-27.76,5.41-41.65,8.09c-15.9,3.07-31.8,6.12-47.71,9.16c-12.15,2.32-23.31-5.09-25.74-17.29
		c-7.67-38.55-15.25-77.11-22.86-115.67c-2.83-14.35-5.61-28.72-8.54-43.05c-0.67-3.28-0.22-5.9,1.77-8.74
		C30.82,78.6,44.23,59.15,57.63,39.7c1.43-2.07,3.11-3.25,5.61-3.73c35.23-6.85,70.44-13.82,105.68-20.63
		c12.47-2.41,23.47,4.93,25.65,17.55c0.93,5.43,2.98,7.53,8.52,8.51c21.42,3.77,42.72,8.17,64.05,12.46
		c12.98,2.61,19.79,13,17.27,25.99c-4.57,23.55-9.14,47.11-13.72,70.66c-0.11,0.57-0.26,1.14-0.4,1.71
		c-0.85,3.52-3.43,5.39-6.54,4.75c-2.94-0.6-4.7-3.23-4.1-6.72c1.15-6.63,2.5-13.22,3.78-19.83c3.48-18,7.01-36,10.43-54.01
		c1.08-5.67-2.19-10.71-7.84-11.84c-22-4.4-44.03-8.66-66.05-12.96C199.61,51.52,199.21,51.59,198.35,51.59z M222.76,170.39
		c-16.92,0.01-30.84,4.14-43.61,12.24c-8.07,5.12-11.33,13.52-8.75,22.77c6.47,23.25,17.85,43.8,34.06,61.66
		c8.43,9.29,23.29,9.45,31.81,0.2c16.41-17.82,27.95-38.41,34.53-61.73c2.54-9.02-0.56-17.6-8.35-22.8
		C249.91,174.37,235.98,170.54,222.76,170.39z M58.86,56.97c-8.95,12.86-17.43,25.04-26.38,37.9c8.17-1.56,15.58-2.7,22.85-4.44
		c5.39-1.29,8.77-6.72,7.84-12.13C61.99,71.42,60.42,64.61,58.86,56.97z"/>
	<path class="st0" d="M65.26,168.72c-3.36,0.05-5.57-2-5.88-5.04c-0.28-2.78,1.35-4.84,4.51-5.49c14.14-2.9,28.28-5.78,42.42-8.65
		c23.6-4.79,47.2-9.57,70.81-14.35c3.92-0.79,6.65,0.61,7.39,3.74c0.75,3.2-1.22,5.76-5.34,6.6c-23.49,4.82-46.99,9.6-70.5,14.38
		c-13.85,2.82-27.71,5.62-41.57,8.42C66.35,168.5,65.59,168.65,65.26,168.72z"/>
	<path class="st0" d="M59.32,138.94c-3.31,0.02-5.47-1.98-5.74-5.02c-0.26-2.9,1.41-4.87,4.81-5.56c9.75-1.99,19.5-3.93,29.25-5.92
		c27.33-5.56,54.65-11.13,81.98-16.71c4.93-1.01,7.8,0.15,8.52,3.56c0.74,3.52-1.31,5.78-6.2,6.78
		c-36.88,7.53-73.76,15.06-110.64,22.58C60.53,138.81,59.75,138.88,59.32,138.94z"/>
	<path class="st0" d="M70.7,198.17c-2.79,0.03-4.75-1.74-5.1-4.58c-0.38-3.14,1.05-5.26,4.27-5.94c5.62-1.2,11.27-2.27,16.9-3.41
		c17.47-3.51,34.95-7.03,52.42-10.53c3.36-0.67,6.16,1,6.75,3.94c0.62,3.12-1.03,5.67-4.48,6.37c-23.1,4.7-46.2,9.34-69.31,13.99
		C71.68,198.11,71.19,198.12,70.7,198.17z"/>
	<path class="st0" d="M215.3,226.09c4.97-5.2,9.68-10.13,14.38-15.07c3.44-3.6,6.84-7.24,10.31-10.8c2.66-2.73,5.5-2.85,7.95-0.48
		c2.4,2.33,2.4,5.28-0.2,7.98c-8.33,8.64-16.67,17.28-25.11,25.82c-4.29,4.34-10.21,4.37-14.67,0.16
		c-4.05-3.82-7.98-7.75-11.88-11.72c-2.52-2.56-2.51-5.41-0.2-7.77c2.25-2.29,5.29-2.33,7.77,0.1
		C207.53,218.13,211.32,222.06,215.3,226.09z"/>
</g>
</svg>
