<?xml version="1.0" encoding="utf-8"?>
<!-- Generator: Adobe Illustrator 26.5.0, SVG Export Plug-In . SVG Version: 6.00 Build 0)  -->
<svg version="1.1" id="Layer_1" xmlns="http://www.w3.org/2000/svg" xmlns:xlink="http://www.w3.org/1999/xlink" x="0px" y="0px"
	 viewBox="0 0 300 300" style="enable-background:new 0 0 300 300;" xml:space="preserve">
<style type="text/css">
	.st0{fill:#FFFFFF;}
</style>
<g>
	<path class="st0" d="M300,260.74c0,6.06,0,12.11,0,18.17c-1.74,4.12-4.86,5.49-9.27,5.48c-93.82-0.07-187.65-0.07-281.47,0
		c-4.41,0-7.53-1.37-9.27-5.48c0-6.06,0-12.11,0-18.17c3.27-10.5,11.51-12.09,20.82-11.12c0.12-0.84,0.2-1.12,0.2-1.41
		c0.01-39.54,0-79.08,0.06-118.63c0-1.83-0.86-2.21-2.34-2.63c-7.46-2.11-12.99-6.68-16.09-13.78c-1.3-2.98-1.79-6.31-2.64-9.48
		c0-6.25,0-12.5,0-18.75c6.25-12.33,12.55-24.63,18.71-37.01c0.83-1.66,1.25-3.68,1.31-5.55c0.17-5.56-0.04-11.13,0.09-16.7
		c0.15-6.32,3.87-9.92,10.15-10.03c3.32-0.06,6.64-0.02,9.96-0.01c3.42,0.01,6.84-0.04,10.25,0.11c2.39,0.1,3.79,1.63,3.96,3.94
		c0.17,2.31-1.03,3.93-3.37,4.44c-1.04,0.23-2.12,0.28-3.19,0.29c-5.47,0.03-10.94-0.05-16.4,0.08c-0.87,0.02-2.44,0.92-2.46,1.46
		c-0.19,5.23-0.11,10.47-0.11,15.74c80.95,0,161.51,0,242.25,0c0-4.58,0-8.87,0-13.16c0-4.11,0-4.11-4.1-4.11
		c-64.44,0-128.88,0-193.32-0.02c-1.45,0-2.95-0.04-4.35-0.38c-2.18-0.54-3.25-2.19-3.07-4.38c0.17-2.17,1.45-3.58,3.69-3.9
		c0.87-0.12,1.75-0.12,2.63-0.12c65.32-0.01,130.64-0.01,195.96,0c7.9,0,11.33,3.5,11.35,11.51c0.01,5.37-0.02,10.74,0.02,16.11
		c0.01,0.96,0,2.04,0.4,2.85c6.51,12.96,13.09,25.89,19.65,38.82c0,6.25,0,12.5,0,18.75c-0.17,0.65-0.44,1.28-0.51,1.94
		c-1.05,9.93-8.05,18.47-17.68,21.1c-2.38,0.65-2.91,1.71-2.9,4.02c0.07,38.47,0.05,76.94,0.05,115.4c0,1.04,0,2.08,0,3.43
		c2.78,0,5.2-0.1,7.62,0.02C293.8,249.97,297.76,254.34,300,260.74z M104.83,249.34c55.32,0,110.24,0,165.34,0c0-1.08,0-1.95,0-2.82
		c0-38.67,0-77.34,0-116.02c0-0.49,0.15-1.05-0.04-1.45c-0.33-0.69-0.78-1.68-1.35-1.83c-6.12-1.55-10.96-4.95-14.86-10.18
		c-5.34,6.92-12.13,10.85-20.85,10.84c-8.67-0.01-15.47-3.87-20.71-10.66c-10.39,13.73-30.34,14.71-41.63,0.12
		c-10.61,14.04-30.75,14.17-41.57-0.13c-5.25,6.83-12.07,10.68-20.79,10.67c-8.68-0.02-15.44-3.96-20.71-10.79
		c-5.37,7.06-12.16,10.76-20.76,10.78c-8.71,0.02-15.48-3.95-20.81-10.83c-3.63,4.76-7.89,8.27-13.52,9.65
		c-2.25,0.55-2.79,1.6-2.79,3.83c0.07,38.57,0.05,77.15,0.05,115.72c0,1.03,0,2.06,0,3.07c2.82,0,5.2,0,7.75,0c0-1.38,0-2.55,0-3.71
		c0-30.57,0-61.13,0-91.7c0-7.29,3.01-10.28,10.35-10.28c15.43-0.01,30.86-0.01,46.29,0c7.72,0,10.61,2.89,10.61,10.6
		c0,30.47,0,60.94,0,91.41C104.83,246.8,104.83,247.97,104.83,249.34z M8.8,275.31c94.31,0,188.27,0,282.39,0
		c0-4.12,0.12-8.02-0.04-11.91c-0.12-3.02-2.07-4.79-5.07-5.02c-0.78-0.06-1.56-0.03-2.34-0.03c-89.15,0-178.31,0-267.46,0
		c-0.68,0-1.37-0.02-2.05,0.02c-3.33,0.18-5.29,2-5.39,5.33C8.7,267.48,8.8,271.28,8.8,275.31z M46.55,152.6
		c0,32.32,0,64.47,0,96.69c16.56,0,32.96,0,49.23,0c0-32.41,0-64.56,0-96.69C79.25,152.6,62.98,152.6,46.55,152.6z M166.01,81.3
		c-0.73-10.22-1.44-20.19-2.17-30.51c-1.27,0-2.32,0-3.36,0c-6.14,0-12.29,0-18.43,0c-5.8,0-5.79,0-6.25,5.63
		c-0.05,0.58-0.14,1.16-0.18,1.75c-0.54,7.65-1.07,15.31-1.61,23.14C144.73,81.3,155.12,81.3,166.01,81.3z M99.72,50.91
		c-2.2,10.24-4.35,20.24-6.53,30.41c10.69,0,21.18,0,31.96,0c0.72-10.16,1.44-20.2,2.16-30.41C117.9,50.91,108.96,50.91,99.72,50.91
		z M174.84,81.25c10.85,0,21.32,0,31.97,0c-2.22-10.29-4.39-20.34-6.54-30.29c-9.33,0-18.27,0-27.58,0
		C173.41,61.12,174.12,71.1,174.84,81.25z M90.74,50.79c-8.97,0-17.43-0.05-25.9,0.1C64.1,50.9,63.03,52.12,62.7,53
		c-3.24,8.76-6.36,17.56-9.5,26.35c-0.21,0.6-0.31,1.24-0.47,1.92c10.6,0,20.99,0,31.45,0C86.36,71.15,88.51,61.17,90.74,50.79z
		 M247.53,81.34c-2.7-7.53-5.26-14.75-7.88-21.96c-1.02-2.82-1.43-6.66-3.48-8.08c-2.07-1.43-5.81-0.5-8.82-0.51
		c-5.92-0.03-11.85-0.01-18.09-0.01c2.24,10.42,4.39,20.45,6.57,30.56C226.36,81.34,236.67,81.34,247.53,81.34z M11.97,81.45
		c10.16,0,20,0.04,29.83-0.09c0.68-0.01,1.66-1.14,1.97-1.95c2.01-5.29,3.87-10.62,5.77-15.95c1.47-4.11,2.92-8.21,4.51-12.68
		c-8.38,0-16.38,0.08-24.37-0.06c-2.01-0.03-2.91,0.73-3.74,2.41c-4.22,8.57-8.55,17.09-12.83,25.64
		C12.73,79.53,12.44,80.33,11.97,81.45z M245.93,50.8c3.61,10.06,6.98,19.59,10.51,29.05c0.28,0.74,1.65,1.51,2.53,1.53
		c5.94,0.13,11.88,0.07,17.83,0.07c3.65,0,7.3,0,11.43,0c-5.12-10.2-9.99-19.92-14.92-29.61c-0.25-0.49-1.02-1-1.55-1.01
		C263.29,50.78,254.83,50.8,245.93,50.8z M9.27,90.34c0,5.06-0.32,9.84,0.07,14.56c0.62,7.36,6.78,13.34,13.86,14.05
		c8.15,0.82,15.67-3.38,17.46-10.97c1.32-5.64,0.99-11.66,1.41-17.64C30.64,90.34,20.03,90.34,9.27,90.34z M92.36,90.34
		c0,5.09-0.44,9.99,0.1,14.77c0.91,8,7.34,13.57,15.24,13.94c7.9,0.37,15.01-4.57,16.47-12.43c0.98-5.26,0.62-10.77,0.86-16.28
		C113.79,90.34,103.17,90.34,92.36,90.34z M175.39,90.36c0,5.14-0.46,10.14,0.11,15.02c0.88,7.6,7.39,13.2,14.93,13.65
		c7.76,0.46,14.92-4.05,16.53-11.54c1.18-5.5,0.93-11.32,1.33-17.14C196.92,90.36,186.3,90.36,175.39,90.36z M258.35,90.34
		c0,4.62-0.14,9,0.03,13.36c0.3,7.38,5.69,13.62,12.83,15.12c7.07,1.49,14.36-1.9,17.74-8.37c3.36-6.42,1.67-13.29,2.08-20.11
		C279.99,90.34,269.38,90.34,258.35,90.34z M50.84,90.34c0,5.17-0.37,10.05,0.09,14.86c0.68,7.22,6.87,13.06,13.84,13.75
		c7.93,0.79,14.86-3.28,17.39-10.41c2.11-5.95,0.75-12.07,1.09-18.2C72.18,90.34,61.57,90.34,50.84,90.34z M133.97,90.34
		c0,5.35-0.49,10.46,0.12,15.44c0.84,6.83,6.71,12.23,13.18,13.13c7.27,1.02,13.84-2.21,17.15-8.54c3.37-6.44,1.43-13.3,2.04-20.03
		C155.28,90.34,144.66,90.34,133.97,90.34z M216.79,90.4c0,4.51-0.14,8.88,0.03,13.24c0.31,7.82,6.51,14.51,13.97,15.3
		c8.48,0.9,16.12-3.69,17.81-11.7c1.14-5.42,0.84-11.14,1.2-16.84C238.41,90.4,227.72,90.4,216.79,90.4z"/>
	<path class="st0" d="M122.89,152.43c0,23.22,0,45.94,0,68.92c42.07,0,84.08,0,126.35,0c0-22.81,0-45.67,0-68.92
		c-1.09,0-2.13,0-3.17,0c-15.81,0-31.63,0-47.44-0.01c-1.07,0-2.18,0.07-3.21-0.16c-2.01-0.45-3.22-1.78-3.34-3.89
		c-0.13-2.09,0.78-3.65,2.79-4.29c1.09-0.35,2.3-0.43,3.45-0.43c16.69-0.03,33.39-0.03,50.08-0.01c6.73,0.01,9.87,3.14,9.87,9.87
		c0.02,22.36,0.02,44.71,0,67.07c-0.01,6.77-3.06,9.79-9.87,9.79c-41.59,0.01-83.17,0.01-124.76,0c-6.64,0-9.66-2.98-9.67-9.65
		c-0.03-22.46-0.03-44.91,0-67.37c0.01-6.6,3.13-9.71,9.68-9.72c16.69-0.02,33.39-0.01,50.08,0c0.87,0,1.77,0.02,2.61,0.21
		c2.43,0.54,3.75,2.1,3.53,4.61c-0.21,2.36-1.66,3.66-4.01,3.9c-0.97,0.1-1.95,0.06-2.93,0.06c-15.52,0-31.04,0-46.57,0
		C125.33,152.43,124.27,152.43,122.89,152.43z"/>
	<path class="st0" d="M88.42,199.72c0,1.36,0.14,2.74-0.03,4.09c-0.3,2.48-1.9,3.95-4.31,3.95c-2.41,0-4.12-1.47-4.29-3.95
		c-0.2-2.91-0.22-5.86,0.03-8.76c0.21-2.46,1.97-3.87,4.4-3.8c2.29,0.06,3.84,1.47,4.13,3.8c0.2,1.53,0.04,3.11,0.04,4.67
		C88.4,199.72,88.41,199.72,88.42,199.72z"/>
</g>
</svg>
