<?xml version="1.0" encoding="utf-8"?>
<!-- Generator: Adobe Illustrator 26.5.0, SVG Export Plug-In . SVG Version: 6.00 Build 0)  -->
<svg version="1.1" id="Layer_1" xmlns="http://www.w3.org/2000/svg" xmlns:xlink="http://www.w3.org/1999/xlink" x="0px" y="0px"
	 viewBox="0 0 300 300" style="enable-background:new 0 0 300 300;" xml:space="preserve">
<style type="text/css">
	.st0{fill:#FFFFFF;}
</style>
<g>
	<path class="st0" d="M150.08,6.29c69.88,0.09,129.96,50.58,141.57,119.17c4.38,25.85,2,51.14-7.34,75.71
		c-1.6,4.2-4.81,6.02-8.33,4.71c-3.57-1.33-4.98-4.79-3.4-8.96c6.21-16.35,9.5-33.29,8.52-50.73
		c-2.96-52.81-27.81-92.37-75.63-114.71C156.6,8.64,109.4,15.2,67.02,48.62c-27.29,21.52-42.84,50.5-47.15,85.11
		c-8.52,68.32,36.67,131.14,104.22,144.92c23.87,4.87,47.37,3.01,70.34-5.14c1.1-0.39,2.19-0.82,3.3-1.18
		c3.66-1.18,6.98,0.22,8.24,3.44c1.3,3.34-0.21,7.09-3.99,8.2c-9.52,2.81-19,6.12-28.74,7.69c-39.35,6.34-75.56-2.06-107.76-25.6
		c-31.62-23.11-51.06-54.25-57.24-92.98C-1.12,114.41,24.86,58.28,75.27,27.27C98.15,13.19,123.18,6.27,150.08,6.29z"/>
	<path class="st0" d="M149.98,68.22c-41.34,0.58-76.37,31.96-80.77,72.77c-4.81,44.65,27.29,84.85,71.76,89.76
		c14.56,1.61,28.58-0.6,42.03-6.47c1.57-0.69,3.32-1.34,4.99-1.35c2.84-0.02,5.07,2.25,5.6,5.09c0.53,2.84-0.75,5.67-3.83,6.81
		c-6.75,2.49-13.49,5.28-20.48,6.8c-50.52,10.99-101.03-22.21-111.17-72.82c-9.97-49.77,20.77-97.95,70.18-110
		c53.06-12.94,106.71,23.42,114.41,77.48c2.62,18.37,0.12,35.96-7.54,52.83c-1.52,3.35-3.85,4.91-6.71,4.58
		c-4.42-0.5-6.48-4.67-4.9-9.25c2.25-6.52,4.84-13.02,6.21-19.74c8.52-41.62-19.37-84.4-61-93.71
		C162.6,69.63,156.25,69.13,149.98,68.22z"/>
	<path class="st0" d="M268.99,268.79c-0.18,3.25-0.12,6.09-0.53,8.86c-1.09,7.42-5.29,12.56-12.32,14.99
		c-6.9,2.39-13.48,1.22-18.76-3.9c-8.9-8.62-17.57-17.5-26.23-26.37c-3.26-3.34-4.83-7.55-4.87-12.22
		c-0.06-8.49-0.06-16.99,0.02-25.48c0.01-1.64,0.11-3.43,0.78-4.87c1.05-2.28,0.35-3.6-1.28-5.23
		c-19.52-19.41-38.97-38.9-58.43-58.37c-0.83-0.83-1.69-1.64-2.37-2.58c-1.84-2.54-1.53-5.85,0.65-8.02
		c2.16-2.15,5.5-2.44,8.02-0.58c1.01,0.75,1.9,1.68,2.79,2.58c19.54,19.53,39.09,39.05,58.58,58.64c1.35,1.36,2.4,1.71,4.27,1.04
		c1.88-0.68,4-0.94,6.02-0.97c8.1-0.1,16.21-0.04,24.31-0.05c5.34-0.01,9.93,1.82,13.71,5.59c8.3,8.27,16.64,16.5,24.83,24.87
		c5.67,5.79,7.13,12.75,4.16,20.24c-3.04,7.66-9.13,11.4-17.28,11.82C273.11,268.87,271.17,268.79,268.99,268.79z M218.7,237.32
		c0,3.81-0.24,7.63,0.1,11.41c0.18,1.99,0.87,4.38,2.19,5.76c7.95,8.32,16.15,16.41,24.27,24.58c1.95,1.96,4.22,2.79,6.91,1.73
		c2.77-1.09,4.03-3.22,4.03-6.16c-0.01-3.71-0.04-7.42,0.02-11.12c0.08-4.81,2.44-7.2,7.21-7.29c3.51-0.07,7.03-0.07,10.54,0
		c3.12,0.07,5.56-0.93,6.8-3.97c1.2-2.95,0.06-5.27-2.04-7.36c-7.88-7.85-15.65-15.82-23.68-23.5c-1.52-1.45-4.07-2.47-6.18-2.56
		c-7.6-0.3-15.22-0.16-22.83-0.1c-4.92,0.04-7.26,2.47-7.32,7.48C218.67,229.9,218.7,233.61,218.7,237.32z"/>
	<path class="st0" d="M118.82,149.87c-0.07,17.03,13.23,30.76,30.3,31.29c1.17,0.04,2.35-0.06,3.51,0.08
		c3.31,0.4,5.57,2.89,5.63,6.06c0.06,3.25-1.97,5.85-5.37,6.23c-6.84,0.77-13.42-0.54-19.73-3.16
		c-18.4-7.64-28.96-26.25-26.49-46.58c2.23-18.4,17.61-34.02,36.45-37.04c26.4-4.22,50.61,16.41,50.65,43.14
		c0.01,4.82-1.62,7.53-4.94,8.25c-4.22,0.91-7.73-2.12-7.64-6.9c0.14-7.39-1.8-14.08-6.25-19.99
		c-8.07-10.76-22.08-15.14-34.79-10.92C127.44,124.57,118.88,136.41,118.82,149.87z"/>
</g>
</svg>
