<?xml version="1.0" encoding="utf-8"?>
<!-- Generator: Adobe Illustrator 26.5.0, SVG Export Plug-In . SVG Version: 6.00 Build 0)  -->
<svg version="1.1" id="Layer_1" xmlns="http://www.w3.org/2000/svg" xmlns:xlink="http://www.w3.org/1999/xlink" x="0px" y="0px"
	 viewBox="0 0 300 300" style="enable-background:new 0 0 300 300;" xml:space="preserve">
<style type="text/css">
	.st0{fill:#FFFFFF;}
</style>
<g>
	<path class="st0" d="M150.15,86.38c24.43,0,48.86,0.05,73.29-0.06c2.98-0.01,4.74,0.87,6.38,3.46
		c10.86,17.13,21.89,34.16,32.98,51.14c1.59,2.44,1.6,4.21-0.25,6.49c-36.37,45.14-72.68,90.33-109,135.5
		c-2.32,2.89-4.63,2.92-6.91,0.08c-36.38-45.25-72.76-90.51-109.18-135.74c-1.66-2.06-1.83-3.75-0.36-6.01
		c11.37-17.5,22.67-35.04,33.92-52.62c1.25-1.95,2.88-2.28,4.96-2.28C100.7,86.39,125.42,86.38,150.15,86.38z M210.87,148.05
		c-40.73,0-81.01,0-121.63,0c20.27,41.7,40.39,83.09,60.82,125.1C170.49,231.13,190.61,189.74,210.87,148.05z M91.29,140.01
		c39.41,0,78.28,0,117.31,0c-0.28-0.49-0.39-0.76-0.57-0.98c-11.84-14.63-23.67-29.27-35.6-43.82c-0.71-0.86-2.31-1.39-3.5-1.4
		c-12.59-0.1-25.19-0.12-37.78,0.02c-1.31,0.01-3,0.85-3.85,1.86c-5.89,7.02-11.61,14.19-17.38,21.31
		C103.8,124.56,97.68,132.12,91.29,140.01z M131.33,252.36c0.12-0.07,0.24-0.14,0.36-0.2c-0.13-0.33-0.23-0.67-0.39-0.99
		c-16.47-33.91-32.92-67.82-49.48-101.69c-0.4-0.83-1.9-1.57-2.89-1.59c-9.87-0.12-19.73-0.07-29.6-0.06c-0.51,0-1.02,0.18-1.8,0.32
		C75.61,183.07,103.47,217.71,131.33,252.36z M252.77,147.94c-1.24-0.06-1.89-0.11-2.55-0.11c-9.58-0.01-19.15,0.07-28.73-0.06
		c-2.04-0.03-2.85,0.78-3.66,2.45c-16.06,33.14-32.18,66.25-48.29,99.37c-0.41,0.84-0.74,1.72-1.11,2.58
		c0.12,0.07,0.23,0.14,0.35,0.21C196.65,217.72,224.51,183.07,252.77,147.94z M214.53,135.55c2.31-14.34,4.51-27.96,6.74-41.81
		c-13.6,0-26.81,0-40.62,0C191.95,107.68,202.96,121.27,214.53,135.55z M85.59,135.55c11.52-14.22,22.57-27.86,33.84-41.76
		c-13.83,0-27.04,0-40.59,0C81.09,107.66,83.28,121.24,85.59,135.55z M72.49,99.87c-8.93,13.84-17.37,26.92-25.94,40.2
		c11.17,0,21.74,0,32.43,0C76.84,126.78,74.73,113.74,72.49,99.87z M253.66,140.19c-8.76-13.56-17.21-26.64-26.05-40.32
		c-2.25,13.95-4.36,27.05-6.5,40.32C231.98,140.19,242.49,140.19,253.66,140.19z"/>
	<path class="st0" d="M186.85,47.31c0,8.6,0,16.69,0,24.78c0,4.24-1.19,6.15-3.77,6.07c-2.48-0.08-3.55-1.88-3.56-5.98
		c-0.04-17.17-0.08-34.33-0.11-51.5c-0.01-4.38,1.21-5.44,5.59-5.35c4.69,0.1,9.38-0.01,14.07,0.05
		c8.84,0.11,14.45,5.62,14.62,14.44c0.05,2.42,0.01,4.92-0.53,7.26c-1.32,5.71-6.57,9.84-12.52,10.15
		c-2.24,0.12-4.49,0.07-6.74,0.08C191.69,47.31,189.46,47.31,186.85,47.31z M187.09,40.13c4.32,0,8.4,0.07,12.48-0.02
		c3.68-0.08,6.28-2.34,6.78-5.64c0.95-6.36-0.47-10.1-4.35-11.5c-0.36-0.13-0.74-0.31-1.12-0.32c-4.55-0.02-9.11-0.01-13.79-0.01
		C187.09,28.49,187.09,34.11,187.09,40.13z"/>
	<path class="st0" d="M109.36,63.36c4.34-12.51,8.45-24.37,12.56-36.23c0.93-2.67,1.86-5.33,2.8-7.99c1.15-3.22,2.67-4.3,5-3.58
		c2.25,0.69,2.91,2.69,1.82,5.84c-5.44,15.74-10.9,31.46-16.34,47.2c-0.76,2.21-1.2,4.57-2.29,6.6c-0.67,1.25-2.16,2.49-3.51,2.86
		c-1.99,0.54-3.18-1.05-3.8-2.85c-6.19-17.94-12.38-35.89-18.55-53.84c-1.3-3.77,0.45-6.71,3.58-5.78c1.28,0.38,2.63,1.99,3.11,3.34
		c4.88,13.66,9.58,27.39,14.34,41.09C108.39,60.93,108.77,61.82,109.36,63.36z"/>
	<path class="st0" d="M148.85,46.67c0-8.48,0-16.96,0-25.45c0-0.78-0.04-1.56,0.03-2.34c0.18-2.17,1.36-3.45,3.56-3.44
		c2.21,0.01,3.47,1.28,3.52,3.47c0.09,3.7,0.04,7.41,0.04,11.11c0,13.94,0,27.88,0,41.83c0,0.78-0.01,1.56-0.01,2.34
		c-0.01,2.3-1.11,3.72-3.43,3.93c-2.11,0.19-3.68-1.45-3.69-3.96C148.82,65,148.85,55.84,148.85,46.67z"/>
</g>
</svg>
